<?xml version="1.0" encoding="UTF-8"?>
<svg id="Layer_2" xmlns="http://www.w3.org/2000/svg" viewBox="0 0 95.26 667.76">
  <defs>
    <style>
      .cls-1 {
        fill: #ee4799;
      }
    </style>
  </defs>
  <g id="Layer_2-2" data-name="Layer_2">
    <g>
      <g>
        <path class="cls-1" d="M55.07,44.15l39.69-5.26v15.29l-39.71-4.73-1.64-.2v2.71l.32.4,25.21,31.51-14.34,8.19-15.78-36.81-.38-.89h-2.45l-.39.85-17.08,37.07-12.81-8.1,25.02-32.12.31-.4v-2.72l-1.65.21L.5,54.17v-15.28l38.6,5,1.65.21v-2.72l-.3-.4L15.72,8.92,29.56.97l16.31,36.58.39.87h2.46l.38-.88L65.16.71l13.55,7.68-25,32.87-.3.39v2.71l1.66-.22Z"/>
        <path class="cls-1" d="M28.73,93.02l-13.76-8.7,25.57-32.82v-1.98L0,54.74v-16.42l40.25,5.21v-1.98L14.97,8.77,29.79.26l16.79,37.66h1.81L64.93,0l14.53,8.23-25.54,33.59v1.98l41.35-5.48v16.43l-41.35-4.93v1.97l.21.26,25.57,31.97-15.34,8.76-16.25-37.91h-1.8l-17.58,38.15ZM16.44,84.06l11.86,7.5,17.37-37.69h3.1l16.07,37.49,13.35-7.62-25.27-31.59v-3.45l41.35,4.93v-14.16l-41.35,5.47v-3.45l25.06-32.94-12.57-7.12-16.35,37.5h-3.11l-.52-1.17L29.33,1.68l-12.87,7.39,24.79,32.14v3.45L1,39.46v14.14l40.54-5.21v3.46l-25.1,32.22Z"/>
      </g>
      <g>
        <path class="cls-1" d="M55.07,427.31l39.69-5.26v15.29l-39.71-4.73-1.64-.2v2.71l.32.4,25.21,31.51-14.34,8.19-15.78-36.81-.38-.89h-2.45l-.39.85-17.08,37.07-12.81-8.1,25.02-32.12.31-.4v-2.72l-1.65.21L.5,437.33v-15.28l38.6,5,1.65.21v-2.72l-.3-.4-24.73-32.07,13.85-7.95,16.31,36.58.39.87h2.46l.38-.88,16.06-36.83,13.55,7.68-25,32.87-.3.39v2.71l1.66-.22Z"/>
        <path class="cls-1" d="M28.73,476.18l-13.76-8.7,25.57-32.82v-1.98l-40.54,5.21v-16.42l40.25,5.21v-1.98l-25.28-32.78,14.82-8.51,16.79,37.66h1.81l16.53-37.92,14.53,8.23-25.54,33.59v1.98l41.35-5.48v16.42l-41.35-4.93v1.97l25.79,32.23-15.34,8.76-16.25-37.92h-1.8l-17.58,38.15ZM16.44,467.22l11.86,7.5,17.37-37.69h3.1l16.07,37.49,13.35-7.62-25.27-31.59v-3.45l41.35,4.93v-14.16l-41.35,5.48v-3.45l.4-.53,24.66-32.42-12.57-7.12-16.35,37.5h-3.11l-.52-1.17-16.09-36.07-12.87,7.39,24.79,32.14v3.45l-40.25-5.21v14.14l40.54-5.21v3.46l-25.1,32.22Z"/>
      </g>
      <g>
        <path class="cls-1" d="M55.07,235.73l39.69-5.26v15.29l-39.71-4.73-1.64-.2v2.71l.32.4,25.21,31.51-14.34,8.19-15.78-36.81-.38-.89h-2.45l-.39.85-17.08,37.07-12.81-8.1,25.02-32.12.31-.4v-2.72l-1.65.21L.5,245.75v-15.28l38.6,5,1.65.21v-2.72l-.3-.4-24.73-32.07,13.85-7.95,16.31,36.58.39.87h2.46l.38-.88,16.06-36.83,13.55,7.68-25,32.87-.3.39v2.71l1.66-.22Z"/>
        <path class="cls-1" d="M28.73,284.6l-13.76-8.7,25.57-32.82v-1.98L0,246.31v-16.42l40.25,5.21v-1.98l-25.28-32.78,14.82-8.51,16.79,37.66h1.81l16.53-37.92,14.53,8.23-25.54,33.59v1.98l41.35-5.48v16.42l-41.35-4.93v1.97l25.79,32.23-15.34,8.76-16.25-37.91h-1.8l-17.58,38.15ZM16.44,275.64l11.86,7.5,17.37-37.69h3.1l16.07,37.49,13.35-7.62-25.27-31.59v-3.45l41.35,4.93v-14.16l-41.35,5.48v-3.45l.4-.53,24.66-32.42-12.57-7.12-16.35,37.5h-3.11l-.52-1.17-16.09-36.07-12.87,7.39,24.79,32.14v3.45l-40.25-5.21v14.14l40.54-5.21v3.46l-25.1,32.22Z"/>
      </g>
      <g>
        <path class="cls-1" d="M55.07,618.89l39.69-5.26v15.29l-39.71-4.73-1.64-.2v2.71l.32.4,25.21,31.51-14.34,8.19-15.78-36.81-.38-.89h-2.45l-.39.85-17.08,37.07-12.81-8.1,25.02-32.12.31-.4v-2.72l-1.65.21-38.88,5v-15.28l38.6,5,1.65.21v-2.72l-.3-.4-24.73-32.07,13.85-7.95,16.31,36.58.39.87h2.46l.38-.88,16.06-36.83,13.55,7.68-25,32.87-.3.39v2.71l1.66-.22Z"/>
        <path class="cls-1" d="M28.73,667.76l-13.76-8.7,25.57-32.82v-1.98l-40.54,5.21v-16.42l40.25,5.21v-1.98l-25.28-32.78,14.82-8.51,16.79,37.66h1.81l16.53-37.92,14.53,8.23-.35.46-25.2,33.13v1.98l41.35-5.48v16.42l-41.35-4.93v1.97l.21.27,25.57,31.97-15.34,8.76-16.25-37.91h-1.8l-17.58,38.15ZM16.44,658.8l11.86,7.5,17.37-37.69h3.1l16.07,37.49,13.35-7.62-25.27-31.59v-3.45l41.35,4.93v-14.16l-41.35,5.48v-3.45l.4-.53,24.66-32.42-12.57-7.12-16.35,37.5h-3.11l-.52-1.17-16.09-36.07-12.87,7.39,24.79,32.14v3.45l-2.22-.29-38.03-4.92v14.14l40.54-5.21v3.46l-.41.53-24.68,31.69Z"/>
      </g>
    </g>
  </g>
</svg>