<?xml version="1.0" encoding="UTF-8"?>
<svg id="Layer_2" xmlns="http://www.w3.org/2000/svg" viewBox="0 0 34.65 34.83">
  <defs>
    <style>
      .cls-1 {
        fill: #ee4799;
      }
    </style>
  </defs>
  <g id="Layer_1-2" data-name="Layer_1">
    <path class="cls-1" d="M11.34,34.83l-6.74-4.26,8.42-10.81-13.03,1.67v-8.06l12.94,1.68L4.58,4.2,11.74.09l5.53,12.4L22.71,0l7.07,4.01-8.46,11.12,13.32-1.76v8.05l-13.29-1.58,8.53,10.67-7.38,4.21-5.36-12.5-5.81,12.62ZM6.8,30.18l3.9,2.46,5.91-12.82h1.16l5.47,12.75,4.39-2.51-8.58-10.72v-1.29l14.1,1.68v-4.65l-14.1,1.87v-1.3l8.51-11.19-4.13-2.34-5.56,12.76h-1.16L11.05,2.22l-4.23,2.43,8.42,10.91v1.3l-13.73-1.78v4.64l13.83-1.78v1.3l-8.52,10.94Z"/>
  </g>
</svg>