<?xml version="1.0" encoding="UTF-8"?>
<svg id="Layer_2" xmlns="http://www.w3.org/2000/svg" viewBox="0 0 276.96 52.37">
  <defs>
    <style>
      .cls-1 {
        fill: #231f20;
      }
    </style>
  </defs>
  <g id="Layer_1-2" data-name="Layer_1">
    <g>
      <path class="cls-1" d="M0,50.91c4.03-2.59,4.25-11.88,4.25-25.13C4.25,13.54,3.89,4.1,0,1.66l.07-.58,15.05-.07c11.81-.07,22.83,7.06,22.83,24.7s-11.09,25.92-22.83,25.85l-15.05-.07-.07-.58ZM27.65,25.71c0-12.31-3.24-22.83-13.18-22.83h-1.3c-.43,13.39-.36,26.28-.22,39.53.07,3.96.65,6.98,3.17,6.98,9.94,0,11.52-11.23,11.52-23.69Z"/>
      <path class="cls-1" d="M52.78,44.79c.07,2.52.43,4.68,2.74,4.68,7.34.07,11.74-3.02,13.9-15.34l.36-.07c.07,6.26.65,11.88,1.87,17.43h-31.9l-.07-.58c4.39-3.46,4.25-13.32,4.25-25.49,0-13.46-.29-20.31-4.25-23.76l.07-.58h32.47c-1.37,4.61-2.88,10.01-2.95,15.34h-.36c-2.23-8.06-2.88-13.61-12.46-13.39h-3.6c-.29,7.42-.36,14.83-.36,22.03,1.8-2.23,6.41-4.46,9.86-4.46,2.38,0,4.18,1.08,4.32,3.82.14,3.1-3.17,4.82-3.17,4.82l-.14-.07c-.79-2.45-3.1-4.39-5.83-4.39-1.66,0-3.38.65-5.04,2.3,0,7.56.07,9.86.29,17.71Z"/>
      <path class="cls-1" d="M89.79,52.35c-10.95-.5-15.99-6.26-15.99-11.02,0-3.53,2.66-6.48,7.27-6.26,1.01,11.52,6.98,15.12,11.67,15.12,3.96,0,7.13-3.31,7.13-7.42,0-11.59-25.35-12.1-25.35-28.44,0-8.35,6.98-14.33,16.49-14.33s14.11,5.26,14.11,10.08c0,3.17-1.94,6.12-6.05,7.06h-.43c-.5-10.22-6.55-14.76-11.3-14.76-3.24,0-5.98,2.23-5.98,6.62,0,10.23,24.99,11.88,24.99,27.72,0,10.44-8.35,15.99-16.56,15.63Z"/>
      <path class="cls-1" d="M107.93,50.91c4.1-2.66,4.32-12.75,4.32-22.25v-3.31c0-12.96-.72-21.31-4.32-23.69l.07-.58h16.56l.07.58c-3.31,2.38-4.25,8.71-4.25,23.47,0,11.95.07,23.26,4.25,25.78l-.07.58h-16.56l-.07-.58Z"/>
      <path class="cls-1" d="M135.29,16.78c0,17.14,9.94,31.11,16.2,31.11,2.88,0,4.97-2.88,4.97-9.72,0-5.04-1.73-11.23-5.69-12.46l.07-.58,13.68-.07.07.14c.07,0-1.44,2.38-1.44,8.14v7.56c0,6.91.86,10.15.86,10.15h-.22s-3.02-1.87-5.18-5.62c-3.46,4.82-7.92,6.91-12.6,6.91-9.58,0-19.51-9.43-19.51-23.76,0-19.95,11.38-28.59,22.54-28.59,9.58,0,13.61,5.18,13.61,10.22,0,3.38-1.73,6.48-4.46,7.71h-.5c-3.02-9.43-9.43-14.33-14.47-14.33-4.54,0-7.92,3.67-7.92,13.18Z"/>
      <path class="cls-1" d="M200.74,52.2l-27.51-39.75v12.6c0,14.98.94,21.67,4.97,25.85l-.07.58h-11.74l-.07-.58c4.18-4.25,4.9-10.87,4.9-25.92,0-14.19-1.08-20.81-4.32-23.33l-.07-.58h7.49c2.38.22,4.68,1.15,7.06,4.68l17.71,25.99c0-15.77.29-25.27-5.04-30.1v-.58h11.95l.07.58c-4.25,4.61-4.97,13.46-4.97,29.23v21.31h-.36Z"/>
      <path class="cls-1" d="M221.11,44.79c.07,2.52.43,4.68,2.74,4.68,7.34.07,11.74-3.02,13.9-15.34l.36-.07c.07,6.26.65,11.88,1.87,17.43h-31.9l-.07-.58c4.39-3.46,4.25-13.32,4.25-25.49,0-13.46-.29-20.31-4.25-23.76l.07-.58h32.48c-1.37,4.61-2.88,10.01-2.95,15.34h-.36c-2.23-8.06-2.88-13.61-12.46-13.39h-3.6c-.29,7.42-.36,14.83-.36,22.03,1.8-2.23,6.41-4.46,9.87-4.46,2.38,0,4.18,1.08,4.32,3.82.14,3.1-3.17,4.82-3.17,4.82l-.14-.07c-.79-2.45-3.1-4.39-5.83-4.39-1.66,0-3.38.65-5.04,2.3,0,7.56.07,9.86.29,17.71Z"/>
      <path class="cls-1" d="M269.28,41.76c1.8.07,3.89-1.01,4.9-2.74,4.18,2.38,4.1,13.32-3.38,13.32-6.91,0-8.79-12.89-12.67-20.23-.5-.94-1.66-2.23-2.52-2.95-.14,10.08.5,19.23,4.25,21.75l-.14.58h-17.14v-.58c4.9-3.24,4.32-17.28,4.32-25.13s-.22-22.11-4.32-24.12l.07-.58,15.55-.07c12.75-.14,18.65,6.84,18.72,16.2.07,11.74-6.84,14.83-13.11,14.98-1.15,0-2.3-.07-3.38-.36,1.87,3.53,4.39,9.79,8.86,9.94ZM267.34,16.71c-.14-7.2-3.31-13.68-11.74-13.68v17.79c0,6.48,2.16,8.71,4.68,8.78,3.31.14,7.27-4.25,7.06-12.89Z"/>
    </g>
  </g>
</svg>