<?xml version="1.0" encoding="UTF-8"?>
<svg id="Layer_2" xmlns="http://www.w3.org/2000/svg" viewBox="0 0 371.45 51.56">
  <defs>
    <style>
      .cls-1 {
        fill: #231f20;
      }
    </style>
  </defs>
  <g id="Layer_1-2" data-name="Layer_1">
    <g>
      <path class="cls-1" d="M10.01,5.55l-1.8,20.74c-1.3,14.98-1.37,19.37,1.87,23.62l-.07.58H.07l-.07-.58c3.38-3.53,5.18-8.28,6.34-23.55C7.42,12.89,8.93,4.18,3.96.65l.07-.58h15.91c1.15,7.92,3.1,18.58,6.84,27.22L33.48.07h13.83l.07.58c-4.18,5.69-3.46,15.19-1.87,25.63,1.73,12.31,2.38,19.01,6.84,23.62v.58h-18l-.07-.58c5.26-4.68,2.81-20.74-.36-43.64l-10.94,45.22-.86.07c-4.03-14.62-7.2-31.32-12.1-46.01Z"/>
      <path class="cls-1" d="M85.47,35.07c-.07,9.58-6.05,16.27-13.97,16.27-9.58,0-15.84-6.19-15.7-15.77l.07-6.05c.22-19.87-1.66-26.43-4.39-28.87l.07-.58h16.06l.07.72c-3.6,4.03-3.31,9.94-3.53,28.44l-.07,7.13c-.07,6.77,3.89,11.52,9.29,11.52s9.86-5.11,9.86-12.53v-7.34c0-21.03-1.66-23.55-5.18-27.22l.07-.72h11.88l.07.72c-3.02,4.1-4.32,6.98-4.54,26.57l-.07,7.7Z"/>
      <path class="cls-1" d="M92.16,49.9c4.32-3.31,4.32-12.6,4.32-25.49,0-9.65-.14-21.03-4.32-23.76l.07-.58h16.92l.07.58c-4.39,2.95-4.03,15.27-4.18,23.76,0,7.06.22,12.24.5,19.37.07,2.52.43,4.68,2.74,4.68,7.34.07,9.65-7.34,12.53-19.66l.43-.07c.07,6.26.65,16.2,1.87,21.75h-30.89l-.07-.58Z"/>
      <path class="cls-1" d="M128.88,49.9c4.1-2.81,4.32-12.46,4.32-24.34,0-7.27,0-17.21-.5-24.48-10.15,4.25-10.66,12.17-11.81,16.92l-.36.07c-.5-5.54-1.44-12.46-2.95-18h39.75c-1.51,5.54-2.52,12.46-2.95,18l-.36-.07c-1.08-4.82-1.73-12.67-11.74-16.92-.5,7.27-.5,17.21-.5,24.48,0,11.88.22,21.82,4.25,24.34l-.07.58h-16.99l-.07-.58Z"/>
      <path class="cls-1" d="M158.11,49.9c4.1-2.66,4.32-12.75,4.32-22.25v-3.31c0-12.96-.72-21.31-4.32-23.69l.07-.58h16.56l.07.58c-3.31,2.38-4.25,8.71-4.25,23.47,0,11.95.07,23.26,4.25,25.78l-.07.58h-16.56l-.07-.58Z"/>
      <path class="cls-1" d="M186.12,5.55l-1.8,20.74c-1.3,14.98-1.37,19.37,1.87,23.62l-.07.58h-9.94l-.07-.58c3.38-3.53,5.18-8.28,6.34-23.55,1.08-13.47,2.59-22.18-2.38-25.71l.07-.58h15.91c1.15,7.92,3.1,18.58,6.84,27.22L209.59.07h13.83l.07.58c-4.18,5.69-3.46,15.19-1.87,25.63,1.73,12.31,2.38,19.01,6.84,23.62v.58h-18l-.07-.58c5.26-4.68,2.81-20.74-.36-43.64l-10.94,45.22-.86.07c-4.03-14.62-7.2-31.32-12.1-46.01Z"/>
      <path class="cls-1" d="M243.07,43.78c.07,2.52.43,4.68,2.74,4.68,7.34.07,11.74-3.02,13.9-15.34l.36-.07c.07,6.26.65,11.88,1.87,17.43h-31.9l-.07-.58c4.39-3.46,4.25-13.32,4.25-25.49,0-13.46-.29-20.31-4.25-23.76l.07-.58h32.48c-1.37,4.61-2.88,10.01-2.95,15.34h-.36c-2.23-8.06-2.88-13.61-12.46-13.39h-3.6c-.29,7.42-.36,14.83-.36,22.03,1.8-2.23,6.41-4.46,9.86-4.46,2.38,0,4.18,1.08,4.32,3.82.14,3.1-3.17,4.82-3.17,4.82l-.14-.07c-.79-2.45-3.1-4.39-5.83-4.39-1.66,0-3.38.65-5.04,2.3,0,7.56.07,9.86.29,17.71Z"/>
      <path class="cls-1" d="M264.6,49.9c4.03-2.59,4.25-11.88,4.25-25.13,0-12.24-.36-21.67-4.25-24.12l.07-.58L279.72,0c11.81-.07,22.83,7.06,22.83,24.7s-11.09,25.92-22.83,25.85l-15.05-.07-.07-.58ZM292.25,24.7c0-12.31-3.24-22.83-13.18-22.83h-1.3c-.43,13.39-.36,26.28-.22,39.53.07,3.96.65,6.98,3.17,6.98,9.94,0,11.52-11.23,11.52-23.69Z"/>
      <path class="cls-1" d="M304.27,49.9c4.1-2.66,4.32-12.75,4.32-22.25v-3.31c0-12.96-.72-21.31-4.32-23.69l.07-.58h16.56l.07.58c-3.31,2.38-4.25,8.71-4.25,23.47,0,11.95.07,23.26,4.25,25.78l-.07.58h-16.56l-.07-.58Z"/>
      <path class="cls-1" d="M336.96,43.78c.07,2.52.43,4.68,2.74,4.68,7.34.07,11.74-3.02,13.9-15.34l.36-.07c.07,6.26.65,11.88,1.87,17.43h-31.9l-.07-.58c4.39-3.46,4.25-13.32,4.25-25.49,0-13.46-.29-20.31-4.25-23.76l.07-.58h32.48c-1.37,4.61-2.88,10.01-2.95,15.34h-.36c-2.23-8.06-2.88-13.61-12.46-13.39h-3.6c-.29,7.42-.36,14.83-.36,22.03,1.8-2.23,6.41-4.46,9.87-4.46,2.38,0,4.18,1.08,4.32,3.82.14,3.1-3.17,4.82-3.17,4.82l-.14-.07c-.79-2.45-3.1-4.39-5.83-4.39-1.66,0-3.38.65-5.04,2.3,0,7.56.07,9.86.29,17.71Z"/>
      <path class="cls-1" d="M354.53,26.43h16.92v2.23h-16.92v-2.23Z"/>
    </g>
  </g>
</svg>