<svg width="41" height="42" viewBox="0 0 41 42" fill="none" xmlns="http://www.w3.org/2000/svg">
<g clip-path="url(#clip0_144_275)">
<path d="M35.669 2.12109H5.33021C3.52982 2.12109 2.07031 3.6162 2.07031 5.4605V36.5393C2.07031 38.3836 3.52982 39.8787 5.33021 39.8787H35.669C37.4694 39.8787 38.9289 38.3836 38.9289 36.5393V5.4605C38.9289 3.6162 37.4694 2.12109 35.669 2.12109Z" stroke="#075225" stroke-width="3" stroke-miterlimit="10"/>
<path d="M24.146 39.1949L25.1459 39.1948V38.1949V36.7119C25.1459 36.1774 25.1471 35.6415 25.1483 35.1046C25.1513 33.7567 25.1543 32.4023 25.1386 31.0476L25.1385 31.0447L25.1384 31.0332V31.0332C25.138 31.0046 25.1376 30.9758 25.1372 30.9466C25.1288 30.3363 25.1186 29.5918 24.9028 28.8352C26.1324 28.4788 27.411 27.9553 28.5072 27.1617C29.9953 26.0843 31.1469 24.5042 31.3615 22.2489C31.3649 22.2136 31.3684 22.1769 31.372 22.1387C31.4547 21.2765 31.6044 19.7158 31.4627 18.1336C31.338 16.742 30.9711 15.112 29.9309 13.9568C30.2869 12.6185 30.153 11.2905 29.7531 10.032L29.7531 10.032L29.7516 10.0274C29.6556 9.73015 29.4436 9.32539 28.9727 9.12802C28.5533 8.95224 28.1587 9.04589 27.9644 9.10375C26.9257 9.40511 26.0814 9.99276 25.39 10.7151L25.3897 10.7155C25.1792 10.9356 24.9757 11.1717 24.7829 11.4023C23.9301 11.0254 23.0395 10.931 22.268 10.8855C20.6684 10.7903 18.9357 10.7193 17.2001 11.1219C16.8939 11.1913 16.5701 11.3081 16.2775 11.4234C16.1412 11.258 15.9954 11.0848 15.8478 10.919C15.1591 10.1405 14.3116 9.50435 13.2478 9.15188L13.2415 9.14974C13.1345 9.11324 12.9834 9.06167 12.8419 9.03209C12.7019 9.00284 12.3794 8.94955 12.0351 9.11391C11.6812 9.28287 11.5211 9.57666 11.4549 9.71675C11.3907 9.85252 11.3416 10.0082 11.3084 10.1132L11.3057 10.1218L11.3057 10.1218L11.3036 10.1286C10.8867 11.4826 10.8052 12.8797 11.2374 14.2904C10.2124 15.4583 9.84303 16.8669 9.73307 18.219L9.73286 18.2216C9.63792 19.4289 9.55801 20.7289 9.67566 22.0175L9.67573 22.0183C9.9362 24.847 11.4819 26.8809 13.9542 28.1145L13.9585 28.1166C14.6642 28.4645 15.3837 28.7064 16.1011 28.8857C16.053 29.042 16.0094 29.2315 16.0013 29.434C15.9987 29.4583 15.996 29.4837 15.9932 29.51C15.9596 29.8264 15.9115 30.2802 15.8187 30.7601C15.7091 31.327 15.5597 31.8009 15.3832 32.0779C15.3419 32.1428 15.3094 32.1801 15.289 32.2004C15.0976 32.1439 14.5868 31.8314 13.7352 30.6726C13.2904 30.0673 13.029 29.6549 12.835 29.3312C12.7849 29.2477 12.7351 29.1624 12.6848 29.0763C12.5537 28.8521 12.4193 28.6221 12.269 28.4025L12.2684 28.4015C11.6536 27.5047 10.8127 26.6162 9.46484 26.3425L9.46342 26.3422C9.0584 26.2605 8.62977 26.2739 8.34846 26.2827C8.3059 26.284 8.26672 26.2852 8.2315 26.286L8.20055 26.2867L8.1697 26.2893C7.87034 26.3144 7.64459 26.4508 7.52586 26.537C7.40312 26.626 7.25336 26.7646 7.14225 26.9574C6.92669 27.3237 7.01554 27.6814 7.0326 27.7501L7.03302 27.7518C7.06629 27.8859 7.11868 27.994 7.15718 28.0635C7.21949 28.1761 7.3501 28.3761 7.56661 28.5233C8.49415 29.1577 8.99663 30.0904 9.64326 31.2907C9.72246 31.4377 9.80382 31.5887 9.88839 31.7437C10.2528 32.4115 10.8553 33.356 11.6904 34.1287C12.5265 34.9023 13.6857 35.582 15.1224 35.4984C15.2491 35.4914 15.4822 35.4971 15.7926 35.5046C15.821 35.5053 15.8502 35.506 15.8799 35.5067C15.8847 35.7828 15.8907 36.0623 15.8966 36.3399L15.897 36.3579C15.9106 36.9921 15.9238 37.6167 15.9238 38.1951V39.1951L16.9239 39.1951L24.146 39.1949Z" stroke="#075225" stroke-width="2"/>
</g>
<defs>
<clipPath id="clip0_144_275">
<rect width="41" height="42" fill="white"/>
</clipPath>
</defs>
</svg>
