<svg width="48" height="48" viewBox="0 0 48 48" fill="none" xmlns="http://www.w3.org/2000/svg">
<g clip-path="url(#clip0_72_1390)">
<path d="M13 48.25H35C37.8951 48.25 40.25 45.8951 40.25 43V5C40.25 2.10493 37.8951 -0.25 35 -0.25H13C10.1049 -0.25 7.75 2.10493 7.75 5V43C7.75 45.8951 10.1049 48.25 13 48.25ZM10.25 5C10.25 3.48407 11.4841 2.25 13 2.25H35C36.5159 2.25 37.75 3.48407 37.75 5V43C37.75 44.5159 36.5159 45.75 35 45.75H13C11.4841 45.75 10.25 44.5159 10.25 43V5Z" fill="#075225" stroke="#075225" stroke-width="0.5"/>
<path d="M9 10.25H39C39.6912 10.25 40.25 9.68991 40.25 9C40.25 8.31009 39.6912 7.75 39 7.75H9C8.30877 7.75 7.75 8.31009 7.75 9C7.75 9.68991 8.30877 10.25 9 10.25Z" fill="#075225" stroke="#075225" stroke-width="0.5"/>
<path d="M9 40.25H39C39.6912 40.25 40.25 39.6899 40.25 39C40.25 38.3101 39.6912 37.75 39 37.75H9C8.30877 37.75 7.75 38.3101 7.75 39C7.75 39.6899 8.30877 40.25 9 40.25Z" fill="#075225" stroke="#075225" stroke-width="0.5"/>
<path d="M24 41C22.896 41 22 41.896 22 43C22 44.104 22.896 45 24 45C25.104 45 26 44.104 26 43C26 41.896 25.104 41 24 41Z" fill="#075225"/>
<path d="M24 41C22.896 41 22 41.896 22 43C22 44.104 22.896 45 24 45C25.104 45 26 44.104 26 43C26 41.896 25.104 41 24 41Z" stroke="#075225"/>
<path d="M19 6.25H29C29.6912 6.25 30.25 5.68991 30.25 5C30.25 4.31009 29.6912 3.75 29 3.75H19C18.3088 3.75 17.75 4.31009 17.75 5C17.75 5.68991 18.3088 6.25 19 6.25Z" fill="#075225" stroke="#075225" stroke-width="0.5"/>
</g>
<defs>
<clipPath id="clip0_72_1390">
<rect width="48" height="48" fill="white"/>
</clipPath>
</defs>
</svg>
