<svg width="50" height="50" viewBox="0 0 50 50" fill="none" xmlns="http://www.w3.org/2000/svg">
<path d="M44.4244 1.34937H5.97159C3.68969 1.34937 1.83984 3.19945 1.83984 5.48165V43.9395C1.83984 46.2217 3.68969 48.0717 5.97159 48.0717H44.4244C46.7063 48.0717 48.5562 46.2217 48.5562 43.9395V5.48165C48.5562 3.19945 46.7063 1.34937 44.4244 1.34937Z" stroke="#075225" stroke-width="2" stroke-miterlimit="10"/>
<path d="M8.35352 13.0299H17.5949C22.3326 13.0299 25.5554 15.6883 25.5554 19.9859C25.5554 24.8069 21.9607 27.121 17.4571 27.121H12.6781V35.9916H8.35352V13.0299ZM12.6781 23.6499H16.9338C19.523 23.6499 21.1344 22.5342 21.1344 20.0823C21.1344 17.6305 19.344 16.501 17.0026 16.501H12.6781V23.6499Z" fill="#075225"/>
<path d="M31.5337 30.9503C31.7345 31.7129 32.2057 32.3764 32.8594 32.8174C33.5131 33.2583 34.3048 33.4465 35.087 33.347C37.084 33.347 37.8415 32.5757 37.8415 31.3635C37.8415 30.1514 37.0978 29.5729 34.3846 28.8979C29.0546 27.5894 28.1043 25.9502 28.1043 23.5673C28.1043 21.1843 29.881 18.5259 34.7702 18.5259C39.6595 18.5259 41.4499 21.2807 41.6565 23.5948H37.6762C37.4834 22.8097 36.9325 21.5011 34.5774 21.5011C32.7319 21.5011 32.1535 22.3414 32.1535 23.2229C32.1535 24.1045 32.7457 24.7105 35.6379 25.3855C41.1469 26.6803 42.0421 28.5536 42.0421 31.0743C42.0421 33.9531 39.811 36.3911 34.9355 36.3911C30.06 36.3911 27.8564 33.9806 27.457 30.9503H31.5337Z" fill="#075225"/>
</svg>
