<svg width="50" height="50" viewBox="0 0 50 50" fill="none" xmlns="http://www.w3.org/2000/svg">
<path d="M44.7547 1H5.24528C2.90068 1 1 2.90068 1 5.24528V44.7547C1 47.0993 2.90068 49 5.24528 49H44.7547C47.0993 49 49 47.0993 49 44.7547V5.24528C49 2.90068 47.0993 1 44.7547 1Z" stroke="#075225" stroke-width="2" stroke-miterlimit="10"/>
<path d="M40.6224 38.6415L32.2734 42.0377L18.5469 28.4528L9.91487 35.2453L6.66016 33.4056V16.7075L9.91487 15.0094L18.5469 21.8019L32.2734 8.07544L40.6224 11.4717V38.6415ZM20.1036 25.0566L32.1319 37.0849V13.0283L20.1036 25.0566ZM9.91487 31.4245L17.2734 25.0566L10.0564 18.6886L9.91487 31.4245Z" fill="#075225"/>
</svg>
