<svg width="51" height="50" viewBox="0 0 51 50" fill="none" xmlns="http://www.w3.org/2000/svg">
<path d="M44.9696 1.46729H6.1162C3.81052 1.46729 1.94141 3.33664 1.94141 5.64262V44.501C1.94141 46.807 3.81052 48.6763 6.1162 48.6763H44.9696C47.2752 48.6763 49.1444 46.807 49.1444 44.501V5.64262C49.1444 3.33664 47.2752 1.46729 44.9696 1.46729Z" stroke="#075225" stroke-width="2" stroke-miterlimit="10"/>
<path d="M17.4431 31.4322L15.3974 37.3473H11.1113L19.1269 14.1324H24.5681L32.9176 37.3473H28.3254L26.1962 31.4322H17.4431ZM25.2082 27.8554C23.3713 22.5388 22.258 19.3794 21.7292 17.4031C21.1169 19.5047 19.8923 23.2903 18.4172 27.8554H25.2082Z" fill="#075225"/>
<path d="M35.7988 12.7964H39.9736V16.8743H35.7988V12.7964ZM35.7988 20.0893H39.9736V37.3473H35.7988V20.0893Z" fill="#075225"/>
</svg>
