<svg width="44" height="44" viewBox="0 0 44 44" fill="none" xmlns="http://www.w3.org/2000/svg">
<path d="M28.6667 18.6667V15.4917C28.6667 14.0583 28.9833 13.3333 31.2083 13.3333H34V8H29.3417C23.6333 8 21.75 10.6167 21.75 15.1083V18.6667H18V24H21.75V40H28.6667V24H33.3667L34 18.6667H28.6667Z" fill="#075225"/>
<path d="M37.5507 2H5.44929C3.5443 2 2 3.5443 2 5.44929V37.5507C2 39.4557 3.5443 41 5.44929 41H37.5507C39.4557 41 41 39.4557 41 37.5507V5.44929C41 3.5443 39.4557 2 37.5507 2Z" stroke="#075225" stroke-width="3" stroke-miterlimit="10"/>
</svg>
