<svg width="51" height="51" viewBox="0 0 51 51" fill="none" xmlns="http://www.w3.org/2000/svg">
<path d="M45.5094 1.04224H5.64831C3.28283 1.04224 1.36523 2.96008 1.36523 5.32586V45.1922C1.36523 47.5579 3.28283 49.4758 5.64831 49.4758H45.5094C47.8749 49.4758 49.7925 47.5579 49.7925 45.1922V5.32586C49.7925 2.96008 47.8749 1.04224 45.5094 1.04224Z" stroke="#075225" stroke-width="2" stroke-miterlimit="10"/>
<path d="M25.6065 25.2591C25.6065 23.7387 26.198 22.2806 27.251 21.2056C28.304 20.1305 29.7321 19.5266 31.2212 19.5266C32.7103 19.5266 34.1385 20.1305 35.1915 21.2056C36.2444 22.2806 36.836 23.7387 36.836 25.2591C36.836 26.7794 36.2444 28.2375 35.1915 29.3125C34.1385 30.3876 32.7103 30.9915 31.2212 30.9915C29.7321 30.9915 28.304 30.3876 27.251 29.3125C26.198 28.2375 25.6065 26.7794 25.6065 25.2591ZM14.377 36.724C14.377 35.2037 14.9685 33.7456 16.0215 32.6705C17.0744 31.5955 20.6081 30.9915 22.0972 30.9915H25.6065V36.724C25.6065 38.2444 25.0149 39.7024 23.9619 40.7775C22.909 41.8525 21.4808 42.4565 19.9917 42.4565C18.5026 42.4565 17.0744 41.8525 16.0215 40.7775C14.9685 39.7024 14.377 38.2444 14.377 36.724ZM25.6065 8.06165V19.5266H31.2212C32.7103 19.5266 34.1385 18.9226 35.1915 17.8476C36.2444 16.7725 36.836 15.3145 36.836 13.7941C36.836 12.2738 36.2444 10.8157 35.1915 9.74065C34.1385 8.6656 32.7103 8.06165 31.2212 8.06165H25.6065ZM14.377 13.7941C14.377 15.3145 14.9685 16.7725 16.0215 17.8476C17.0744 18.9226 20.6081 19.5266 22.0972 19.5266H25.6065V8.06165H19.9917C18.5026 8.06165 17.0744 8.6656 16.0215 9.74065C14.9685 10.8157 14.377 12.2738 14.377 13.7941ZM14.377 25.2591C14.377 26.7794 14.9685 28.2375 16.0215 29.3125C17.0744 30.3876 20.6081 30.9915 22.0972 30.9915H25.6065V19.5266H22.0972C20.6081 19.5266 17.0744 20.1305 16.0215 21.2056C14.9685 22.2806 14.377 23.7387 14.377 25.2591Z" fill="#075225"/>
</svg>
