<svg width="41" height="42" viewBox="0 0 41 42" fill="none" xmlns="http://www.w3.org/2000/svg">
<g clip-path="url(#clip0_144_275)">
<path d="M35.669 2.12109H5.33021C3.52982 2.12109 2.07031 3.6162 2.07031 5.4605V36.5393C2.07031 38.3836 3.52982 39.8787 5.33021 39.8787H35.669C37.4694 39.8787 38.9289 38.3836 38.9289 36.5393V5.4605C38.9289 3.6162 37.4694 2.12109 35.669 2.12109Z" stroke="#075225" stroke-width="3" stroke-miterlimit="10"/>
<path d="M24.146 39.1949L25.1459 39.1948V38.1949V36.7119C25.1459 36.1774 25.1471 35.6415 25.1483 35.1046C25.1513 33.7567 25.1543 32.4023 25.1386 31.0476L25.1385 31.0447C25.1284 30.3428 25.0326 29.6339 24.7864 28.9384C26.1037 28.6392 27.3768 28.1222 28.5201 27.2423C30.1568 25.9898 31.1074 24.2929 31.3583 22.2778C31.5841 20.4727 31.4902 18.6685 31.0942 16.8996L31.094 16.8985C30.8891 15.9886 30.5162 15.0863 29.8209 14.3239C30.3092 12.8618 30.1895 11.4056 29.7531 10.032L29.7531 10.032L29.7516 10.0274C29.6556 9.73015 29.4436 9.32539 28.9727 9.12802C28.5533 8.95224 28.1587 9.04589 27.9644 9.10375C26.9257 9.40511 26.0814 9.99276 25.39 10.7151L25.3897 10.7155C25.1792 10.9356 24.9757 11.1717 24.7829 11.4023C23.9301 11.0254 23.0395 10.931 22.268 10.8855C20.6684 10.7903 18.9357 10.7193 17.2001 11.1219C16.8939 11.1913 16.5701 11.3081 16.2775 11.4234C16.1412 11.258 15.9954 11.0848 15.8478 10.919C15.1591 10.1405 14.3116 9.50435 13.2478 9.15188L13.2415 9.14974C13.1345 9.11324 12.9834 9.06167 12.8419 9.03209C12.7019 9.00284 12.3794 8.94955 12.0351 9.11391C11.6812 9.28287 11.5211 9.57666 11.4549 9.71675C11.3907 9.85252 11.3416 10.0082 11.3084 10.1132L11.3057 10.1218L11.3057 10.1218L11.3036 10.1286C10.8867 11.4826 10.8052 12.8797 11.2374 14.2904C10.2124 15.4583 9.84303 16.8669 9.73307 18.219L9.73286 18.2216C9.63792 19.4289 9.55801 20.7289 9.67566 22.0175L9.67573 22.0183C9.9362 24.847 11.4819 26.8809 13.9542 28.1145L13.9585 28.1166C14.714 28.489 15.4853 28.74 16.253 28.9227C16.0627 29.4824 15.9838 30.0396 15.9398 30.5522C15.9285 30.6638 15.9329 30.7636 15.937 30.8258C15.9418 30.8999 15.9503 30.9728 15.9581 31.0331C15.9645 31.0835 15.9721 31.1368 15.9787 31.1832C15.98 31.1924 15.9812 31.2013 15.9824 31.2099C15.9859 31.2348 15.9892 31.2581 15.9921 31.28C15.8643 31.4321 15.7314 31.4808 15.5408 31.4741C15.2018 31.4622 14.5637 31.2576 13.5378 30.4711C13.5417 30.4741 13.5239 30.4606 13.4852 30.4163C13.4482 30.374 13.4029 30.316 13.3497 30.2402C13.242 30.0868 13.1254 29.8946 13.0007 29.6758C12.936 29.5622 12.8638 29.4309 12.7886 29.2941C12.6124 28.9734 12.4199 28.6231 12.269 28.4025L12.2684 28.4015C11.6536 27.5047 10.8127 26.6162 9.46484 26.3425L9.46342 26.3422C9.0584 26.2605 8.62977 26.2739 8.34846 26.2827C8.3059 26.284 8.26672 26.2852 8.2315 26.286L8.20055 26.2867L8.1697 26.2893C7.87034 26.3144 7.64459 26.4508 7.52586 26.537C7.40312 26.626 7.25336 26.7646 7.14225 26.9574C6.92669 27.3237 7.01554 27.6814 7.0326 27.7501L7.03302 27.7518C7.06629 27.8859 7.11868 27.994 7.15718 28.0635C7.21949 28.1761 7.3501 28.3761 7.56661 28.5233C8.49415 29.1577 8.99663 30.0904 9.64326 31.2907C9.72246 31.4377 9.80382 31.5887 9.88839 31.7437C10.697 33.2256 12.5018 34.8458 15.1224 34.693C15.2491 34.6861 15.4822 34.6917 15.7926 34.6993C15.8204 34.7 15.8488 34.7006 15.8779 34.7013C15.8829 35.0892 15.8898 35.5088 15.8965 35.9266L15.8969 35.9501C15.9105 36.7866 15.9238 37.6141 15.9238 38.1951V39.1951L16.9239 39.1951L24.146 39.1949ZM29.6009 14.0978C29.6009 14.0978 29.6017 14.0986 29.603 14.1C29.6015 14.0986 29.6008 14.0978 29.6009 14.0978Z" stroke="#075225" stroke-width="2"/>
</g>
<defs>
<clipPath id="clip0_144_275">
<rect width="41" height="42" fill="white"/>
</clipPath>
</defs>
</svg>
