<svg width="50" height="51" viewBox="0 0 50 51" fill="none" xmlns="http://www.w3.org/2000/svg">
<path d="M44.5973 1.82471H5.3711C3.0433 1.82471 1.15625 3.712 1.15625 6.0401V45.2714C1.15625 47.5995 3.0433 49.4868 5.3711 49.4868H44.5973C46.9251 49.4868 48.8121 47.5995 48.8121 45.2714V6.0401C48.8121 3.712 46.9251 1.82471 44.5973 1.82471Z" stroke="#075225" stroke-width="2" stroke-miterlimit="10"/>
<path d="M16.9756 14.4148V37.8383H12.5781V14.4148H16.9756Z" fill="#075225"/>
<path d="M37.3479 13.0095V33.0045C37.3479 34.6064 37.3479 36.2223 37.3479 37.8382H33.4141C33.3073 37.1637 33.2416 36.4833 33.2174 35.8008C32.3042 37.3183 30.7025 38.3019 28.0191 38.3019C23.5794 38.3019 20.7695 34.6766 20.7695 29.295C20.7695 23.9133 23.748 20.0211 28.6372 20.0211C31.3347 20.0211 32.6835 21.0328 33.105 21.8759V13.0095H37.3479ZM25.153 29.1685C25.153 32.8359 26.6984 34.7891 29.1852 34.7891C32.7537 34.7891 33.3017 31.9788 33.3017 28.9999C33.3017 25.7119 32.7537 23.3794 29.3397 23.3794C26.6282 23.4356 25.153 25.5714 25.153 29.1685Z" fill="#075225"/>
</svg>
