<svg width="42" height="42" viewBox="0 0 42 42" fill="none" xmlns="http://www.w3.org/2000/svg">
<g clip-path="url(#clip0_72_1380)">
<path d="M20.984 11.2244C15.1769 11.2244 10.3652 15.9531 10.3652 21.8432C10.3652 27.7333 15.0939 32.462 20.984 32.462C26.8742 32.462 31.6029 27.6503 31.6029 21.8432C31.6029 16.036 26.7912 11.2244 20.984 11.2244ZM20.984 28.6459C17.2509 28.6459 14.1814 25.5764 14.1814 21.8432C14.1814 18.11 17.2509 15.0405 20.984 15.0405C24.7172 15.0405 27.7867 18.11 27.7867 21.8432C27.7867 25.5764 24.7172 28.6459 20.984 28.6459Z" fill="#075225"/>
<path d="M31.924 13.5841C33.2865 13.5841 34.391 12.4796 34.391 11.1171C34.391 9.75466 33.2865 8.65015 31.924 8.65015C30.5615 8.65015 29.457 9.75466 29.457 11.1171C29.457 12.4796 30.5615 13.5841 31.924 13.5841Z" fill="#075225"/>
<path d="M36.8076 2H5.3772C3.51202 2 2 3.51202 2 5.3772V36.8076C2 38.6728 3.51202 40.1848 5.3772 40.1848H36.8076C38.6728 40.1848 40.1848 38.6728 40.1848 36.8076V5.3772C40.1848 3.51202 38.6728 2 36.8076 2Z" stroke="#075225" stroke-width="3" stroke-miterlimit="10"/>
</g>
<defs>
<clipPath id="clip0_72_1380">
<rect width="42" height="42" fill="white"/>
</clipPath>
</defs>
</svg>
