<svg width="41" height="42" viewBox="0 0 41 42" fill="none" xmlns="http://www.w3.org/2000/svg">
<g clip-path="url(#clip0_72_1385)">
<path d="M8.79746 16.8484H13.9897V32.8787H8.79746V16.8484ZM11.4283 9.12109C9.65124 9.12109 8.49023 10.318 8.49023 11.889C8.49023 13.4277 9.61726 14.6594 11.3604 14.6594H11.3935C13.2045 14.6594 14.3324 13.4276 14.3324 11.889C14.2984 10.318 13.2046 9.12109 11.4283 9.12109ZM26.7379 16.4718C23.9818 16.4718 22.7471 18.0271 22.0583 19.1178V16.8484H16.8646C16.9333 18.3522 16.8646 32.8787 16.8646 32.8787H22.0583V23.9262C22.0583 23.4468 22.0923 22.969 22.2289 22.6256C22.605 21.6684 23.4595 20.6772 24.8929 20.6772C26.7735 20.6772 27.5246 22.1479 27.5246 24.3019V32.8786H32.7175V23.6866C32.7175 18.7628 30.1562 16.4718 26.7379 16.4718Z" fill="#075225"/>
<path d="M35.669 2.12109H5.33021C3.52982 2.12109 2.07031 3.6162 2.07031 5.4605V36.5393C2.07031 38.3836 3.52982 39.8787 5.33021 39.8787H35.669C37.4694 39.8787 38.9289 38.3836 38.9289 36.5393V5.4605C38.9289 3.6162 37.4694 2.12109 35.669 2.12109Z" stroke="#075225" stroke-width="3" stroke-miterlimit="10"/>
</g>
<defs>
<clipPath id="clip0_72_1385">
<rect width="41" height="42" fill="white"/>
</clipPath>
</defs>
</svg>
