<svg width="52" height="42" viewBox="0 0 52 42" fill="none" xmlns="http://www.w3.org/2000/svg">
<path d="M51.2603 37.3319C51.2879 37.2479 51.3067 37.1593 51.3067 37.066V6.28785C51.3067 6.194 51.2879 6.10478 51.2597 6.0202C51.2556 6.00861 51.2533 5.99703 51.2486 5.98544C51.211 5.88637 51.1558 5.79716 51.0865 5.71895C51.0818 5.71373 51.0812 5.70736 51.0765 5.70215C51.0736 5.69925 51.0701 5.69809 51.0671 5.6952C50.9932 5.61756 50.9057 5.555 50.8076 5.50807C50.8 5.5046 50.7941 5.49996 50.7865 5.49648C50.6937 5.45535 50.5927 5.43218 50.4865 5.42523C50.4759 5.42465 50.4659 5.42233 50.4554 5.42233C50.4454 5.42175 50.4366 5.41943 50.4266 5.41943H1.57464C1.56466 5.41943 1.55526 5.42175 1.54528 5.42233C1.53589 5.42291 1.52649 5.42465 1.5171 5.42523C1.40965 5.43218 1.30691 5.45593 1.21297 5.49764C1.2071 5.49996 1.2024 5.50402 1.19653 5.50633C1.09672 5.55326 1.00806 5.61699 0.933495 5.69577C0.930559 5.69867 0.927036 5.69925 0.9241 5.70215C0.919403 5.70678 0.918816 5.71316 0.914119 5.71837C0.844838 5.79658 0.789061 5.88637 0.751485 5.98544C0.746788 5.99703 0.744439 6.00861 0.74033 6.02078C0.712147 6.10536 0.693359 6.19458 0.693359 6.28843V37.0671C0.693359 37.1622 0.712734 37.2525 0.741504 37.3383C0.745614 37.3499 0.747962 37.3609 0.752072 37.3725C0.790235 37.4721 0.846599 37.5619 0.916468 37.6401C0.920578 37.6447 0.921752 37.6505 0.925862 37.6552C0.929385 37.6592 0.934082 37.6615 0.938191 37.6656C0.966961 37.6951 0.998666 37.7212 1.03154 37.7467C1.04622 37.7577 1.05914 37.771 1.0744 37.7815C1.11316 37.8081 1.15484 37.8295 1.1977 37.8492C1.20827 37.8539 1.21766 37.8614 1.22823 37.8655C1.3345 37.9101 1.45134 37.9356 1.57405 37.9356H50.4254C50.5481 37.9356 50.665 37.9107 50.7712 37.8655C50.7877 37.8585 50.8029 37.8481 50.8188 37.84C50.8552 37.822 50.8916 37.8035 50.9251 37.7809C50.9427 37.7687 50.9585 37.7531 50.9756 37.7397C51.0055 37.716 51.0349 37.6922 51.0607 37.665C51.0654 37.6604 51.0707 37.6569 51.0754 37.6523C51.0801 37.6471 51.0812 37.6401 51.0859 37.6349C51.1546 37.5573 51.2098 37.468 51.2474 37.3696C51.2533 37.3568 51.2562 37.3446 51.2603 37.3319ZM2.45533 8.25874L17.2785 21.6187L2.45533 35.0853V8.25874ZM32.8368 20.9641C32.7758 21.0034 32.7112 21.0365 32.6601 21.0921C32.6407 21.1129 32.6343 21.1402 32.6172 21.1622L26.0003 27.1258L3.84447 7.15685H48.1562L32.8368 20.9641ZM18.5843 22.7953L25.4061 28.9438C25.5747 29.0955 25.7872 29.1714 26.0003 29.1714C26.2134 29.1714 26.426 29.0955 26.5939 28.9438L33.3312 22.8718L48.1521 36.1976H3.83156L18.5843 22.7953ZM34.6376 21.6946L49.5453 8.25874V35.0992L34.6376 21.6946Z" fill="#075225" stroke="#075225"/>
</svg>
