<svg width="50" height="50" viewBox="0 0 50 50" fill="none" xmlns="http://www.w3.org/2000/svg">
<path d="M44.4244 1.41052H5.97159C3.68969 1.41052 1.83984 3.26061 1.83984 5.54281V44.0006C1.83984 46.2828 3.68969 48.1329 5.97159 48.1329H44.4244C46.7063 48.1329 48.5562 46.2828 48.5562 44.0006V5.54281C48.5562 3.26061 46.7063 1.41052 44.4244 1.41052Z" stroke="#075225" stroke-width="2" stroke-miterlimit="10"/>
<path d="M10.1992 13.2839H19.4268C24.1645 13.2839 27.3873 15.9424 27.3873 20.2537C27.3873 25.0609 23.8064 27.3888 19.2891 27.3888H14.51V36.2594H10.1992V13.2839ZM14.51 23.9039H18.8208C21.41 23.9039 23.0214 22.802 23.0214 20.3364C23.0214 17.8708 21.2448 16.7688 18.8897 16.7688H14.51V23.9039Z" fill="#075225"/>
<path d="M30.5 23.8212C30.5 21.8928 30.5 20.4328 30.5 19.1793H34.5491C34.5491 19.6063 34.6593 21.1766 34.6593 22.3474C35.0902 21.253 35.8536 20.3213 36.8419 19.6838C37.8303 19.0462 38.9937 18.7349 40.1683 18.7936V22.7744C36.7252 22.7744 34.6593 23.9728 34.6593 28.5321V36.2594H30.5275L30.5 23.8212Z" fill="#075225"/>
</svg>
