<?xml version="1.0" encoding="UTF-8"?>
<svg id="Layer_2" xmlns="http://www.w3.org/2000/svg" viewBox="0 0 218.74 51.56">
  <defs>
    <style>
      .cls-1 {
        fill: #231f20;
      }
    </style>
  </defs>
  <g id="Layer_1-2" data-name="Layer_1">
    <g>
      <path class="cls-1" d="M10.01,5.55l-1.8,20.74c-1.3,14.98-1.37,19.37,1.87,23.62l-.07.58H.07l-.07-.58c3.38-3.53,5.18-8.28,6.34-23.55C7.42,12.89,8.93,4.18,3.96.65l.07-.58h15.91c1.15,7.92,3.1,18.58,6.84,27.22L33.48.07h13.83l.07.58c-4.18,5.69-3.46,15.19-1.87,25.63,1.73,12.31,2.38,19.01,6.84,23.62v.58h-18l-.07-.58c5.26-4.68,2.81-20.74-.36-43.64l-10.94,45.22-.86.07c-4.03-14.62-7.2-31.32-12.1-46.01Z"/>
      <path class="cls-1" d="M66.96,43.78c.07,2.52.43,4.68,2.74,4.68,7.34.07,11.74-3.02,13.9-15.34l.36-.07c.07,6.26.65,11.88,1.87,17.43h-31.9l-.07-.58c4.39-3.46,4.25-13.32,4.25-25.49,0-13.46-.29-20.31-4.25-23.76l.07-.58h32.47c-1.37,4.61-2.88,10.01-2.95,15.34h-.36c-2.23-8.06-2.88-13.61-12.46-13.39h-3.6c-.29,7.42-.36,14.83-.36,22.03,1.8-2.23,6.41-4.46,9.86-4.46,2.38,0,4.18,1.08,4.32,3.82.14,3.1-3.17,4.82-3.17,4.82l-.14-.07c-.79-2.45-3.1-4.39-5.83-4.39-1.66,0-3.38.65-5.04,2.3,0,7.56.07,9.86.29,17.71Z"/>
      <path class="cls-1" d="M88.49,49.9c4.03-2.59,4.25-11.88,4.25-25.13,0-12.24-.36-21.67-4.25-24.12l.07-.58L103.61,0c11.81-.07,22.83,7.06,22.83,24.7s-11.09,25.92-22.83,25.85l-15.05-.07-.07-.58ZM116.14,24.7c0-12.31-3.24-22.83-13.18-22.83h-1.3c-.43,13.39-.36,26.28-.22,39.53.07,3.96.65,6.98,3.17,6.98,9.94,0,11.52-11.23,11.52-23.69Z"/>
      <path class="cls-1" d="M157.97,43.78c.07,2.52.43,4.68,2.74,4.68,7.34.07,11.74-3.02,13.9-15.34l.36-.07c.07,6.26.65,11.88,1.87,17.43h-31.9l-.07-.58c4.39-3.46,4.25-13.32,4.25-25.49,0-13.46-.29-20.31-4.25-23.76l.07-.58h32.48c-1.37,4.61-2.88,10.01-2.95,15.34h-.36c-2.23-8.06-2.88-13.61-12.46-13.39h-3.6c-.29,7.42-.36,14.83-.36,22.03,1.8-2.23,6.41-4.46,9.87-4.46,2.38,0,4.18,1.08,4.32,3.82.14,3.1-3.17,4.82-3.17,4.82l-.14-.07c-.79-2.45-3.1-4.39-5.83-4.39-1.66,0-3.38.65-5.04,2.3,0,7.56.07,9.86.29,17.71Z"/>
      <path class="cls-1" d="M213.41,51.2l-27.51-39.75v12.6c0,14.98.94,21.67,4.97,25.85l-.07.58h-11.74l-.07-.58c4.18-4.25,4.9-10.87,4.9-25.92,0-14.19-1.08-20.81-4.32-23.33l-.07-.58h7.49c2.38.22,4.68,1.15,7.06,4.68l17.71,25.99c0-15.77.29-25.27-5.04-30.1V.07h11.95l.07.58c-4.25,4.61-4.97,13.46-4.97,29.23v21.31h-.36Z"/>
    </g>
  </g>
</svg>