<?xml version="1.0" encoding="UTF-8"?>
<svg id="Layer_2" xmlns="http://www.w3.org/2000/svg" viewBox="0 0 366.67 52.37">
  <defs>
    <style>
      .cls-1 {
        fill: #231f20;
      }
    </style>
  </defs>
  <g id="Layer_1-2" data-name="Layer_1">
    <g>
      <path class="cls-1" d="M34.71,19.8c.14,11.74-7.34,16.56-13.61,16.71-3.67.07-6.91-1.51-8.14-4.25.07,10.15,1.08,16.49,4.18,18.65l-.07.58H.14l-.07-.58c4.75-2.95,4.25-17.28,4.25-25.13S4.18,3.67,0,1.66l.07-.58,15.84-.07c12.89-.14,18.72,9.5,18.79,18.79ZM17.79,33.48c3.31.14,7.13-4.9,6.91-14.19-.14-7.92-3.67-16.27-11.74-16.27l-.07,20.74c0,6.48,2.38,9.65,4.9,9.72Z"/>
      <path class="cls-1" d="M29.81,51.48l-.07-.58c3.46-3.24,5.26-4.32,9.07-19.59,2.45-9.58,5.33-21.17,7.42-30.6h5.04c1.58,8.5,3.6,15.48,6.26,24.48,4.75,16.35,8.06,24.99,11.16,25.71l-.07.58h-18.43l-.07-.58c3.31-2.81,1.44-10.22-.07-16.42-2.88,0-10.58,2.09-11.59,6.55-1.01,5.33-.86,7.92,1.73,9.86l-.07.58h-10.3ZM39.24,37.37c1.58-3.17,6.84-5.26,10.08-5.62l-4.46-16.13-5.62,21.75Z"/>
      <path class="cls-1" d="M83.23,52.35c-10.95-.5-15.99-6.26-15.99-11.02,0-3.53,2.66-6.48,7.27-6.26,1.01,11.52,6.98,15.12,11.67,15.12,3.96,0,7.13-3.31,7.13-7.42,0-11.59-25.35-12.1-25.35-28.44,0-8.35,6.98-14.33,16.49-14.33s14.11,5.26,14.11,10.08c0,3.17-1.94,6.12-6.05,7.06h-.43c-.5-10.22-6.55-14.76-11.3-14.76-3.24,0-5.98,2.23-5.98,6.62,0,10.23,24.99,11.88,24.99,27.72,0,10.44-8.35,15.99-16.56,15.63Z"/>
      <path class="cls-1" d="M117.29,52.35c-10.95-.5-15.99-6.26-15.99-11.02,0-3.53,2.66-6.48,7.27-6.26,1.01,11.52,6.98,15.12,11.67,15.12,3.96,0,7.13-3.31,7.13-7.42,0-11.59-25.35-12.1-25.35-28.44,0-8.35,6.98-14.33,16.49-14.33s14.11,5.26,14.11,10.08c0,3.17-1.94,6.12-6.05,7.06h-.43c-.5-10.22-6.55-14.76-11.3-14.76-3.24,0-5.98,2.23-5.98,6.62,0,10.23,24.99,11.88,24.99,27.72,0,10.44-8.35,15.99-16.56,15.63Z"/>
      <path class="cls-1" d="M135.43,50.91c4.1-2.66,4.32-12.75,4.32-22.25v-3.31c0-12.96-.72-21.31-4.32-23.69l.07-.58h16.56l.07.58c-3.31,2.38-4.25,8.71-4.25,23.47,0,11.95.07,23.26,4.25,25.78l-.07.58h-16.56l-.07-.58Z"/>
      <path class="cls-1" d="M173.95,52.35c-10.3,0-19.95-8.06-19.95-25.71S165.1,0,176.26,0c10.51,0,20.67,8.14,20.67,25.2s-11.67,27.15-22.97,27.15ZM180.29,48.96c4.46,0,7.85-4.32,7.85-14.19,0-18.51-10.01-31.32-17.57-31.32-4.46,0-7.78,4.46-7.78,14.83,0,18.43,9.94,30.67,17.5,30.67Z"/>
      <path class="cls-1" d="M232.56,52.2l-27.51-39.75v12.6c0,14.98.94,21.67,4.97,25.85l-.07.58h-11.74l-.07-.58c4.18-4.25,4.9-10.87,4.9-25.92,0-14.19-1.08-20.81-4.32-23.33l-.07-.58h7.49c2.38.22,4.68,1.15,7.06,4.68l17.71,25.99c0-15.77.29-25.27-5.04-30.1v-.58h11.95l.07.58c-4.25,4.61-4.97,13.46-4.97,29.23v21.31h-.36Z"/>
      <path class="cls-1" d="M272.52,50.91v.58h-16.85l-.07-.58c4.46-3.53,4.25-14.33,4.25-25.49,0-9.86-.07-20.74-4.25-23.76l.07-.58h32.47c-1.44,4.61-2.66,10.01-2.88,15.34l-.43-.07c-2.45-10.66-5.11-13.46-12.39-13.32h-3.67c-.29,7.42-.36,15.84-.36,23.04,1.73-2.95,5.98-4.97,9.43-4.97,2.74,0,4.97,1.22,5.11,4.32.14,3.17-3.46,4.97-3.46,4.97l-.14-.07c-.79-2.52-3.24-5.11-5.98-5.11-1.58,0-3.31.86-4.97,2.95,0,8.21-1.51,19.15,4.1,22.75Z"/>
      <path class="cls-1" d="M307.51,52.35c-10.3,0-19.95-8.06-19.95-25.71S298.65,0,309.81,0c10.51,0,20.67,8.14,20.67,25.2s-11.67,27.15-22.97,27.15ZM313.85,48.96c4.46,0,7.85-4.32,7.85-14.19,0-18.51-10.01-31.32-17.57-31.32-4.46,0-7.78,4.46-7.78,14.83,0,18.43,9.94,30.67,17.5,30.67Z"/>
      <path class="cls-1" d="M358.99,41.76c1.8.07,3.89-1.01,4.9-2.74,4.18,2.38,4.1,13.32-3.38,13.32-6.91,0-8.79-12.89-12.67-20.23-.5-.94-1.66-2.23-2.52-2.95-.14,10.08.5,19.23,4.25,21.75l-.14.58h-17.14v-.58c4.9-3.24,4.32-17.28,4.32-25.13s-.22-22.11-4.32-24.12l.07-.58,15.55-.07c12.75-.14,18.65,6.84,18.72,16.2.07,11.74-6.84,14.83-13.11,14.98-1.15,0-2.3-.07-3.38-.36,1.87,3.53,4.39,9.79,8.86,9.94ZM357.05,16.71c-.14-7.2-3.31-13.68-11.74-13.68v17.79c0,6.48,2.16,8.71,4.68,8.78,3.31.14,7.27-4.25,7.06-12.89Z"/>
    </g>
  </g>
</svg>